<svg xmlns="http://www.w3.org/2000/svg" xmlns:xlink="http://www.w3.org/1999/xlink" version="1.1" x="0px" y="0px" viewBox="0 0 100 100" style="enable-background:new 0 0 100 100;" xml:space="preserve"><path d="M80.2,16.3H19.8c-5.7,0-10.3,4.6-10.3,10.3v46.9c0,5.7,4.6,10.3,10.3,10.3h60.4c5.7,0,10.3-4.6,10.3-10.3V26.6  C90.5,20.9,85.9,16.3,80.2,16.3z M47,24.3h6v6h-6V24.3z M23.5,75.6h-6v-6h6V75.6z M23.5,30.3h-6v-6h6V30.3z M38.3,75.6h-6v-6h6V75.6  z M38.3,30.3h-6v-6h6V30.3z M53,75.6h-6v-6h6V75.6z M60,52.5l-15.6,8.8c-1.9,1.1-4.2-0.3-4.2-2.5V41.2c0-2.2,2.3-3.5,4.2-2.5  L60,47.5C62,48.6,62,51.4,60,52.5z M67.7,75.6h-6v-6h6V75.6z M67.7,30.3h-6v-6h6V30.3z M82.4,75.6h-6v-6h6V75.6z M82.4,30.3h-6v-6h6  V30.3z"/></svg>