<svg xmlns="http://www.w3.org/2000/svg" xmlns:xlink="http://www.w3.org/1999/xlink" version="1.1" x="0px" y="0px" viewBox="0 0 100 100" enable-background="new 0 0 100 100" xml:space="preserve"><path d="M56.939,14.591c-4.584,0-16.639,9.283-25.818,18.57c-8.171-0.469-18.437-0.368-20.011,1.336  c-3.393,3.671-1.704,29.342,0,30.786c1.375,1.166,13.053,2.119,21.619,1.691c9.478,9.283,21.185,18.435,24.583,18.435  c4.11,0,1.545-7.312,1.545-35.867C58.855,22.373,61.053,14.591,56.939,14.591z M68.076,36.563c-1.033-1.033-2.707-1.032-3.74,0  c-1.032,1.033-1.032,2.708,0,3.74c5.81,5.81,5.81,15.263,0,21.073c-1.032,1.033-1.032,2.707,0,3.739  c0.517,0.517,1.193,0.775,1.87,0.775s1.354-0.259,1.87-0.775C75.946,57.244,75.946,44.435,68.076,36.563z M82.401,50.841  c0-8.334-3.611-16.159-10.169-22.03c-1.087-0.972-2.76-0.882-3.734,0.207c-0.974,1.088-0.882,2.76,0.206,3.734  c5.422,4.854,8.408,11.278,8.408,18.089c0,6.812-2.986,13.235-8.408,18.089c-1.088,0.975-1.18,2.646-0.206,3.734  c0.522,0.584,1.245,0.881,1.971,0.881c0.629,0,1.259-0.222,1.764-0.674C78.79,67,82.401,59.177,82.401,50.841z M76.063,20.678  c-1.116-0.942-2.786-0.797-3.726,0.318c-0.941,1.117-0.799,2.786,0.318,3.727c8.323,7.011,12.906,16.287,12.906,26.117  c0,9.831-4.583,19.106-12.906,26.119c-1.117,0.941-1.26,2.609-0.318,3.726c0.522,0.622,1.271,0.941,2.024,0.941  c0.601,0,1.206-0.204,1.701-0.622c9.537-8.034,14.788-18.746,14.788-30.164C90.852,39.424,85.601,28.712,76.063,20.678z"/></svg>